{
	"asset":{
		"generator":"Khronos glTF Blender I/O v3.5.30",
		"version":"2.0"
	},
	"extensionsUsed":[
		"KHR_texture_transform",
		"KHR_materials_emissive_strength"
	],
	"extensionsRequired":[
		"KHR_texture_transform"
	],
	"scene":0,
	"scenes":[
		{
			"name":"Scene",
			"nodes":[
				0
			]
		}
	],
	"nodes":[
		{
			"mesh":0,
			"name":"Cube"
		}
	],
	"materials":[
		{
			"doubleSided":true,
			"name":"Material.002",
			"normalTexture":{
				"extensions":{
					"KHR_texture_transform":{
						"offset":[
							0,
							-2
						],
						"scale":[
							3,
							3
						]
					}
				},
				"index":0,
				"scale":0.6000000238418579
			},
			"pbrMetallicRoughness":{
				"baseColorTexture":{
					"extensions":{
						"KHR_texture_transform":{
							"offset":[
								0,
								-2
							],
							"scale":[
								3,
								3
							]
						}
					},
					"index":1
				},
				"roughnessFactor":0.3272727131843567
			}
		},
		{
			"doubleSided":true,
			"emissiveFactor":[
				0.11193159222602844,
				0.29177019000053406,
				1
			],
			"extensions":{
				"KHR_materials_emissive_strength":{
					"emissiveStrength":5
				}
			},
			"name":"Glow",
			"pbrMetallicRoughness":{
				"baseColorFactor":[
					0,
					0,
					0,
					1
				]
			}
		}
	],
	"meshes":[
		{
			"name":"Cube.003",
			"primitives":[
				{
					"attributes":{
						"POSITION":0,
						"TEXCOORD_0":1,
						"NORMAL":2
					},
					"indices":3,
					"material":0
				},
				{
					"attributes":{
						"POSITION":4,
						"TEXCOORD_0":5,
						"NORMAL":6
					},
					"indices":7,
					"material":1
				}
			]
		}
	],
	"textures":[
		{
			"sampler":0,
			"source":0
		},
		{
			"sampler":0,
			"source":1
		}
	],
	"images":[
		{
			"mimeType":"image/png",
			"name":"alien-panels_normal-ogl",
			"uri":"alien-panels_normal-ogl.png"
		},
		{
			"mimeType":"image/png",
			"name":"alien-panels_albedo",
			"uri":"alien-panels_albedo.png"
		}
	],
	"accessors":[
		{
			"bufferView":0,
			"componentType":5126,
			"count":1439,
			"max":[
				1,
				1,
				1
			],
			"min":[
				-1,
				-1,
				-1
			],
			"type":"VEC3"
		},
		{
			"bufferView":1,
			"componentType":5126,
			"count":1439,
			"type":"VEC2"
		},
		{
			"bufferView":2,
			"componentType":5126,
			"count":1439,
			"type":"VEC3"
		},
		{
			"bufferView":3,
			"componentType":5123,
			"count":6984,
			"type":"SCALAR"
		},
		{
			"bufferView":4,
			"componentType":5126,
			"count":455,
			"max":[
				1,
				0.75,
				1
			],
			"min":[
				-0.75,
				-0.75,
				-1
			],
			"type":"VEC3"
		},
		{
			"bufferView":5,
			"componentType":5126,
			"count":455,
			"type":"VEC2"
		},
		{
			"bufferView":6,
			"componentType":5126,
			"count":455,
			"type":"VEC3"
		},
		{
			"bufferView":7,
			"componentType":5123,
			"count":2232,
			"type":"SCALAR"
		}
	],
	"bufferViews":[
		{
			"buffer":0,
			"byteLength":17268,
			"byteOffset":0,
			"target":34962
		},
		{
			"buffer":0,
			"byteLength":11512,
			"byteOffset":17268,
			"target":34962
		},
		{
			"buffer":0,
			"byteLength":17268,
			"byteOffset":28780,
			"target":34962
		},
		{
			"buffer":0,
			"byteLength":13968,
			"byteOffset":46048,
			"target":34963
		},
		{
			"buffer":0,
			"byteLength":5460,
			"byteOffset":60016,
			"target":34962
		},
		{
			"buffer":0,
			"byteLength":3640,
			"byteOffset":65476,
			"target":34962
		},
		{
			"buffer":0,
			"byteLength":5460,
			"byteOffset":69116,
			"target":34962
		},
		{
			"buffer":0,
			"byteLength":4464,
			"byteOffset":74576,
			"target":34963
		}
	],
	"samplers":[
		{
			"magFilter":9729,
			"minFilter":9987
		}
	],
	"buffers":[
		{
			"byteLength":79040,
			"uri":"CUBE.bin"
		}
	]
}
